<svg version="1.1" id="Layer_1" xmlns="http://www.w3.org/2000/svg" xmlns:xlink="http://www.w3.org/1999/xlink" x="0px" y="0px"
	 width="100%" viewBox="0 0 120 63" enable-background="new 0 0 120 63" xml:space="preserve">
<path fill="#464575" opacity="1.000000" stroke="none" 
	d="
M1.000000,35.000000 
	C1.000000,23.727482 1.000000,12.454964 1.000000,1.000000 
	C16.687090,1.000000 32.374886,1.000000 48.532700,1.409839 
	C49.061638,3.182836 49.120564,4.545993 49.101257,6.307476 
	C49.077026,8.050843 49.131027,9.395885 49.129963,11.151819 
	C49.106510,12.941539 49.138115,14.320367 49.106979,16.150101 
	C49.087444,17.806995 49.130653,19.012981 49.123344,20.629150 
	C49.109772,22.420176 49.146713,23.801020 49.128483,25.584705 
	C49.109192,27.336081 49.145073,28.684612 49.126480,30.428347 
	C49.048492,32.154667 49.024979,33.485783 48.538452,34.894810 
	C32.383629,34.981812 16.691814,34.990906 1.000000,35.000000 
z"/>
<path fill="#FBF5F6" opacity="1.000000" stroke="none" 
	d="
M1.000000,35.416664 
	C16.691814,34.990906 32.383629,34.981812 49.003914,34.952541 
	C73.621590,34.954906 97.310791,34.977451 121.000000,35.000000 
	C121.000000,36.388889 121.000000,37.777779 120.535812,39.514023 
	C80.381081,39.907581 40.690540,39.953789 1.000000,40.000000 
	C1.000000,38.611111 1.000000,37.222221 1.000000,35.416664 
z"/>
<path fill="#B83344" opacity="1.000000" stroke="none" 
	d="
M1.000000,40.416664 
	C40.690540,39.953789 80.381081,39.907581 120.535812,39.930687 
	C121.000000,41.388889 121.000000,42.777779 120.540787,44.482475 
	C89.350395,44.782200 58.619213,44.746666 27.888060,44.762146 
	C18.925335,44.766659 9.962685,44.916676 1.000000,45.000000 
	C1.000000,43.611111 1.000000,42.222221 1.000000,40.416664 
z"/>
<path fill="#B93647" opacity="1.000000" stroke="none" 
	d="
M1.000000,54.000000 
	C1.000000,52.611004 1.000000,51.222004 1.451709,49.551537 
	C40.785240,49.292053 79.667061,49.316101 118.548882,49.321953 
	C119.365906,49.322075 120.182961,49.112011 121.000000,49.000000 
	C121.000000,50.388996 121.000000,51.777996 120.540421,53.682354 
	C90.678993,54.213070 61.277142,54.250420 31.875324,54.231850 
	C21.583504,54.225349 11.291772,54.081261 1.000000,54.000000 
z"/>
<path fill="#FAF1F3" opacity="1.000000" stroke="none" 
	d="
M1.000000,54.416664 
	C11.291772,54.081261 21.583504,54.225349 31.875324,54.231850 
	C61.277142,54.250420 90.678993,54.213070 120.540421,54.098858 
	C121.000000,55.388889 121.000000,56.777779 120.533302,58.629253 
	C80.377739,59.061226 40.688869,59.030613 1.000000,59.000000 
	C1.000000,57.611111 1.000000,56.222221 1.000000,54.416664 
z"/>
<path fill="#B4293A" opacity="1.000000" stroke="none" 
	d="
M1.000000,59.499962 
	C40.688869,59.030613 80.377739,59.061226 120.533302,59.045921 
	C121.000000,60.660233 121.000000,62.320465 121.000000,63.985523 
	C81.000000,63.990349 41.000000,63.990349 1.000000,63.987408 
	C1.000000,62.656284 1.000000,61.328106 1.000000,59.499962 
z"/>
<path fill="#FFFFFF" opacity="1.000000" stroke="none" 
	d="
M121.000000,48.600006 
	C120.182961,49.112011 119.365906,49.322075 118.548882,49.321953 
	C79.667061,49.316101 40.785240,49.292053 1.451709,49.135033 
	C1.000000,47.933331 1.000000,46.866661 1.000000,45.399994 
	C9.962685,44.916676 18.925335,44.766659 27.888060,44.762146 
	C58.619213,44.746666 89.350395,44.782200 120.540787,44.899143 
	C121.000000,46.066669 121.000000,47.133339 121.000000,48.600006 
z"/>
<path fill="#B4293A" opacity="1.000000" stroke="none" 
	d="
M49.179489,5.909150 
	C49.120564,4.545993 49.061638,3.182836 49.001358,1.409839 
	C73.000000,1.000000 97.000008,1.000000 121.000000,1.000000 
	C121.000000,2.350837 121.000000,3.675456 120.533302,5.454119 
	C96.437569,5.908492 72.808525,5.908821 49.179489,5.909150 
z"/>
<path fill="#FAF1F3" opacity="1.000000" stroke="none" 
	d="
M49.101257,6.307476 
	C72.808525,5.908821 96.437569,5.908492 120.533302,5.954082 
	C121.000000,7.388889 121.000000,8.777778 120.540421,10.484476 
	C96.448898,10.781833 72.816963,10.761379 49.185024,10.740926 
	C49.131027,9.395885 49.077026,8.050843 49.101257,6.307476 
z"/>
<path fill="#B93647" opacity="1.000000" stroke="none" 
	d="
M49.129963,11.151819 
	C72.816963,10.761379 96.448898,10.781833 120.540421,10.901143 
	C121.000000,12.388889 121.000000,13.777778 120.548294,15.448300 
	C96.454300,15.719687 72.812012,15.709441 49.169724,15.699194 
	C49.138115,14.320367 49.106510,12.941539 49.129963,11.151819 
z"/>
<path fill="#B83344" opacity="1.000000" stroke="none" 
	d="
M49.183655,25.181866 
	C49.146713,23.801020 49.109772,22.420176 49.577866,20.641247 
	C73.721931,20.162109 97.360962,20.081055 121.000000,20.000000 
	C121.000000,21.388889 121.000000,22.777779 120.535812,24.652645 
	C96.442299,25.153038 72.812973,25.167452 49.183655,25.181866 
z"/>
<path fill="#FBF5F6" opacity="1.000000" stroke="none" 
	d="
M49.128483,25.584707 
	C72.812973,25.167452 96.442299,25.153038 120.535812,25.069313 
	C121.000000,26.388889 121.000000,27.777779 120.531738,29.603991 
	C96.435966,30.038589 72.808456,30.035866 49.180950,30.033144 
	C49.145073,28.684612 49.109192,27.336081 49.128483,25.584707 
z"/>
<path fill="#B4283A" opacity="1.000000" stroke="none" 
	d="
M49.126480,30.428347 
	C72.808456,30.035866 96.435966,30.038589 120.531738,30.020657 
	C121.000000,31.388889 121.000000,32.777779 121.000000,34.583336 
	C97.310791,34.977451 73.621590,34.954906 49.466923,34.874630 
	C49.024979,33.485783 49.048492,32.154667 49.126480,30.428347 
z"/>
<path fill="#FFFFFF" opacity="1.000000" stroke="none" 
	d="
M121.000000,19.600004 
	C97.360962,20.081055 73.721931,20.162109 49.628380,20.231066 
	C49.130653,19.012981 49.087444,17.806995 49.106979,16.150101 
	C72.812012,15.709441 96.454300,15.719687 120.548294,15.864967 
	C121.000000,17.066669 121.000000,18.133339 121.000000,19.600004 
z"/>
</svg>