<svg version="1.1" id="Layer_1" xmlns="http://www.w3.org/2000/svg" xmlns:xlink="http://www.w3.org/1999/xlink" x="0px" y="0px"
	 width="100%" viewBox="0 0 360 240" enable-background="new 0 0 360 240" xml:space="preserve">
<path fill="#016D36" opacity="1.000000" stroke="none" 
	d="
M204.000000,241.000000 
	C136.028122,241.000000 68.556244,241.000000 1.042184,241.000000 
	C1.042184,161.061478 1.042184,81.122917 1.042184,1.092181 
	C120.888489,1.092181 240.777069,1.092181 360.832825,1.092181 
	C360.832825,80.999725 360.832825,160.999832 360.832825,241.000000 
	C308.789703,241.000000 256.644836,241.000000 204.000000,241.000000 
M190.669235,80.732025 
	C191.467072,78.748650 192.264893,76.765266 193.463226,75.332657 
	C196.178589,78.475327 198.688965,81.828560 201.653763,84.715034 
	C207.128693,90.045311 206.317902,96.363014 204.388763,102.116714 
	C195.820679,102.116714 187.252579,102.116714 178.684494,102.116714 
	C178.627502,101.589714 178.570526,101.062714 178.513550,100.535713 
	C183.435104,98.983101 188.410660,97.575401 193.240067,95.775505 
	C194.440384,95.328148 195.167953,93.612335 196.112823,92.479568 
	C193.453445,91.060242 190.898788,89.193886 188.062576,88.529434 
	C187.334747,88.358917 185.718582,91.980316 183.854935,94.879585 
	C180.753769,96.976166 176.317612,99.975288 171.485535,102.995316 
	C171.485535,102.995316 171.089355,102.980057 170.911423,102.207619 
	C168.850037,96.611488 166.788666,91.015366 164.727280,85.419243 
	C163.957932,85.646629 163.188568,85.874023 162.419220,86.101418 
	C162.742966,87.771805 162.897766,89.497520 163.423065,91.101913 
	C164.836151,95.417702 166.407440,99.681686 167.260941,104.139458 
	C161.757629,108.303185 156.854309,113.718742 148.589828,113.615311 
	C152.595230,109.427574 157.446152,106.348915 159.153687,102.028046 
	C160.978928,97.409370 159.354340,91.781975 154.797531,87.565910 
	C151.533600,93.348328 157.419525,96.606293 157.651047,102.562294 
	C148.392105,107.822662 138.498932,113.443359 128.605774,119.064049 
	C128.674927,119.393257 128.744080,119.722466 128.813232,120.051674 
	C134.344467,118.522072 139.875687,116.992462 145.710144,115.379005 
	C147.848572,118.793831 151.569931,118.230186 154.574219,116.374557 
	C159.648529,113.240364 164.258179,109.353851 169.088303,106.559380 
	C171.719498,116.100029 176.498581,119.630684 185.413910,118.472038 
	C186.586395,112.362747 179.306671,115.841774 178.094620,111.411301 
	C185.422470,109.607956 192.781204,107.935478 200.042572,105.913383 
	C201.874084,105.403358 203.394302,103.775429 205.916031,102.854576 
	C206.372910,105.930489 206.829773,109.006401 207.286652,112.082321 
	C207.597931,112.079933 207.909195,112.077545 208.220474,112.075157 
	C208.220474,105.485680 208.220474,98.896202 208.220474,91.125633 
	C211.792450,94.123985 214.370667,96.288162 216.395157,97.987534 
	C214.597900,102.007904 213.001801,105.578278 211.405716,109.148651 
	C211.968567,109.778839 212.531403,110.409027 213.094254,111.039215 
	C216.357346,109.742012 220.520920,109.235657 222.585052,106.885437 
	C224.105789,105.153954 222.883545,101.013390 222.883545,96.702644 
	C223.588425,96.110527 225.422226,94.570084 228.157242,92.272598 
	C228.157242,96.438683 228.157242,99.512718 228.083481,103.370079 
	C228.050537,104.156029 228.017593,104.941971 227.440231,106.160721 
	C225.588516,109.017281 223.532013,111.765427 221.945557,114.762405 
	C220.503128,117.487335 219.158295,119.382729 215.905396,116.354111 
	C215.452301,115.537964 214.999207,114.721817 214.546112,113.905670 
	C214.229416,114.008553 213.912720,114.111443 213.596024,114.214325 
	C213.705933,115.134705 213.815842,116.055084 214.083740,117.666176 
	C219.130905,122.695496 221.170212,122.155594 223.984238,115.681618 
	C225.112091,113.086853 227.258087,110.934639 229.269379,108.121155 
	C230.306732,109.755478 230.677063,110.130814 230.807434,110.576363 
	C232.187057,115.291588 235.456467,116.899406 240.016785,115.925423 
	C244.501419,114.967583 246.234482,111.909431 245.886444,107.443901 
	C245.692581,104.956696 245.775208,102.448135 245.587570,99.960190 
	C245.236984,95.311562 244.780273,90.670921 244.261124,84.827087 
	C247.931244,87.830444 252.131348,89.554451 252.977463,92.308777 
	C254.864624,98.452034 255.077026,105.109764 255.971832,111.557869 
	C257.051483,109.275314 257.440094,106.920067 257.571960,104.550545 
	C257.710449,102.062141 257.602936,99.560051 257.602936,97.063942 
	C260.902954,99.501122 263.102264,102.330078 265.221466,105.217842 
	C267.185333,107.893959 266.597015,110.087036 263.798157,111.776314 
	C260.612762,113.698875 257.436859,115.637199 253.922455,117.771767 
	C261.608704,118.217834 268.209991,114.134003 269.753143,107.138794 
	C270.841461,102.205536 270.702057,96.923622 270.549255,91.814178 
	C270.360352,85.497757 269.599365,79.197929 269.066925,72.892517 
	C268.781952,69.517509 268.457886,66.145798 268.151489,62.772602 
	C267.525787,62.759304 266.900085,62.746010 266.274384,62.732716 
	C265.996063,64.002571 265.388611,65.299553 265.490723,66.538055 
	C266.434174,77.981239 267.518951,89.412704 268.504059,100.852631 
	C268.614288,102.132721 268.361115,103.444107 268.297150,104.424141 
	C265.146271,100.669174 262.181946,97.200676 259.300476,93.664650 
	C258.401672,92.561653 257.045471,91.268517 257.058716,90.075294 
	C257.154480,81.445465 252.313705,72.276146 260.036499,63.582268 
	C257.088226,67.153336 255.322876,65.131897 252.909622,61.915966 
	C252.945099,69.862228 248.533020,72.994896 243.444611,75.617935 
	C242.971695,71.235275 242.531494,67.155800 242.091278,63.076321 
	C241.233215,63.124310 240.375137,63.172298 239.517059,63.220287 
	C239.517059,65.653870 239.517059,68.087448 238.984451,71.097115 
	C238.822113,71.302162 238.659790,71.507210 237.891556,71.380486 
	C235.752182,69.945290 233.612823,68.510086 231.473450,67.074883 
	C231.025238,67.459396 230.577026,67.843910 230.128815,68.228432 
	C232.363602,71.228531 234.445999,74.360611 236.888641,77.180672 
	C238.426285,78.955894 239.078629,80.307777 236.339539,82.181557 
	C234.412445,83.787483 232.485336,85.393410 229.998093,87.466133 
	C229.255859,78.603714 228.607635,70.863968 227.959427,63.124218 
	C227.273376,63.130566 226.587326,63.136913 225.901276,63.143265 
	C225.637589,64.760323 225.051590,66.402016 225.172928,67.989655 
	C225.488907,72.124252 225.766174,76.315620 226.693909,80.337875 
	C228.363754,87.577820 226.497345,92.920815 219.742249,95.872849 
	C209.669403,91.345490 206.242737,83.159386 206.957108,72.630959 
	C207.172989,69.449379 206.792908,66.227356 206.685806,63.023853 
	C204.915817,63.430252 204.118134,63.902843 204.110687,64.387581 
	C204.023346,70.070091 204.054657,75.754425 204.054657,83.171509 
	C202.352600,81.026108 200.564072,79.808304 200.549149,78.569160 
	C200.491943,73.817993 196.776657,72.835960 193.255219,70.767059 
	C193.328842,70.263863 193.402481,69.760658 193.476120,69.257462 
	C193.733871,69.306190 193.991623,69.354912 194.249390,69.403648 
	C193.938644,69.953835 193.627899,70.504013 192.710175,71.332108 
	C192.648727,71.978233 192.587296,72.624359 191.998993,73.679085 
	C190.375153,69.939018 188.751312,66.198959 186.660675,61.383766 
	C183.918793,67.262199 187.701691,70.437920 188.493195,74.215919 
	C188.880356,76.063927 188.752838,78.019760 188.057755,79.963661 
	C182.850037,80.606010 180.444824,77.954697 179.695541,73.078484 
	C179.225662,70.020630 178.438126,67.011589 177.793106,63.980648 
	C177.211838,64.088165 176.630554,64.195679 176.049286,64.303200 
	C176.430710,67.245071 177.453445,70.280792 177.039993,73.106354 
	C176.451752,77.126518 178.916031,79.330666 181.125702,81.439812 
	C183.843430,84.033897 187.202515,84.788651 190.669235,80.732025 
M133.297211,78.379181 
	C134.319794,72.249794 130.683502,67.551826 129.432846,62.120884 
	C128.984467,62.196323 128.536072,62.271763 128.087677,62.347202 
	C127.730064,63.563877 127.372467,64.780556 126.319069,66.024055 
	C124.621658,67.009407 122.924248,67.994766 121.032501,68.272881 
	C120.547867,66.728004 120.063240,65.183128 119.578606,63.638252 
	C119.089531,63.763344 118.600456,63.888435 118.111382,64.013527 
	C118.483711,67.131790 119.429100,70.313438 119.092819,73.353310 
	C118.599930,77.808754 121.596863,79.914314 124.194145,82.028732 
	C127.605385,84.805794 131.111954,83.325058 133.297211,78.379181 
M115.277000,94.832298 
	C112.666016,89.603523 113.149254,84.822517 118.356812,80.453697 
	C116.013985,80.594238 114.686546,80.673866 113.782021,80.728127 
	C111.123512,74.765518 115.472824,68.146156 109.829079,62.916897 
	C109.829079,68.914337 109.829079,74.911781 109.829079,81.364265 
	C107.748131,80.410934 106.097931,79.654945 104.447731,78.898956 
	C104.117073,79.337448 103.786415,79.775940 103.455757,80.214432 
	C105.826721,82.252258 108.197685,84.290092 110.889305,86.603531 
	C111.411041,92.502281 111.989372,99.040825 112.567696,105.579376 
	C113.035477,105.570396 113.503265,105.561409 113.971046,105.552429 
	C114.140045,102.645988 114.220436,99.729645 114.543152,96.840370 
	C114.619522,96.156631 115.509804,95.563805 115.946648,95.662766 
	C118.114876,100.903938 123.150253,96.456299 126.938072,98.885246 
	C120.711586,106.009926 112.437340,108.682541 103.919479,112.377228 
	C103.443024,109.093750 103.044235,106.345467 102.579903,103.145508 
	C101.253555,107.677773 100.081276,111.683586 99.020416,115.308678 
	C107.448418,120.212929 116.746269,120.240929 126.144508,115.548149 
	C135.462128,110.895630 142.357666,104.531853 141.847321,94.522842 
	C145.444946,94.078804 148.405746,94.549660 149.929184,93.286720 
	C151.409821,92.059273 151.416733,89.054153 152.070786,86.829636 
	C151.503967,86.700851 150.937134,86.572060 150.370316,86.443275 
	C150.009369,87.870422 149.648407,89.297569 149.021805,91.775063 
	C146.928741,90.406998 145.392517,89.402885 143.610641,88.238220 
	C143.026993,88.903175 142.118988,89.937660 140.278732,92.034264 
	C139.734192,86.157150 139.335129,81.473145 138.857010,76.797226 
	C138.386963,72.200272 137.836609,67.611519 137.321487,63.019173 
	C136.524292,63.086578 135.727097,63.153984 134.929886,63.221390 
	C134.119156,73.056473 137.435974,82.746925 137.299820,94.182266 
	C135.332031,91.816101 134.266815,90.535233 133.170288,89.216721 
	C131.288666,90.412460 129.390305,91.618843 128.662445,92.081390 
	C125.219749,90.706573 122.680473,88.826378 120.358253,89.064346 
	C118.763580,89.227768 117.470413,92.333412 115.277000,94.832298 
M238.086227,179.489212 
	C239.743866,179.548233 241.463882,179.346344 243.045197,179.724503 
	C245.735321,180.367844 247.973679,180.901352 248.470917,177.039139 
	C248.963959,173.209427 247.507797,171.326096 243.644714,171.325455 
	C238.524399,171.324615 233.404083,171.325256 228.627930,171.325256 
	C228.233002,169.358566 228.003311,167.909164 227.583160,166.517273 
	C227.531845,166.347244 225.970291,166.359879 225.934052,166.500534 
	C225.545975,168.006699 225.324203,169.555695 224.973206,171.573608 
	C188.453110,171.573608 151.626511,171.573608 113.871109,171.573608 
	C118.919548,175.936035 124.226013,175.518921 129.198914,175.547134 
	C159.502457,175.719177 189.807190,175.685501 220.111511,175.720001 
	C221.900864,175.722046 223.690201,175.720276 225.582458,175.720276 
	C224.742599,179.418747 224.168762,182.390076 229.317154,179.737259 
	C230.501694,179.126877 232.249863,179.610367 234.219742,180.118652 
	C235.232407,179.946640 236.245071,179.774628 238.086227,179.489212 
M164.531158,83.944176 
	C170.244354,86.309227 173.288620,85.351570 175.973785,79.598289 
	C170.881165,83.136284 166.435379,82.119591 161.783585,79.761116 
	C162.521423,80.984581 163.259277,82.208054 164.531158,83.944176 
z"/>
<path fill="#E7F1EC" opacity="1.000000" stroke="none" 
	d="
M239.517059,70.521027 
	C239.517059,68.087448 239.517059,65.653870 239.517059,63.220287 
	C240.375137,63.172298 241.233215,63.124310 242.091278,63.076321 
	C242.531494,67.155800 242.971695,71.235275 243.444611,75.617935 
	C248.533020,72.994896 252.945099,69.862228 252.909622,61.915966 
	C255.322876,65.131897 257.088226,67.153336 260.036499,63.582268 
	C252.313705,72.276146 257.154480,81.445465 257.058716,90.075294 
	C257.045471,91.268517 258.401672,92.561653 259.300476,93.664650 
	C262.181946,97.200676 265.146271,100.669174 268.297150,104.424141 
	C268.361115,103.444107 268.614288,102.132721 268.504059,100.852631 
	C267.518951,89.412704 266.434174,77.981239 265.490723,66.538055 
	C265.388611,65.299553 265.996063,64.002571 266.274384,62.732716 
	C266.900085,62.746010 267.525787,62.759304 268.151489,62.772602 
	C268.457886,66.145798 268.781952,69.517509 269.066925,72.892517 
	C269.599365,79.197929 270.360352,85.497757 270.549255,91.814178 
	C270.702057,96.923622 270.841461,102.205536 269.753143,107.138794 
	C268.209991,114.134003 261.608704,118.217834 253.922455,117.771767 
	C257.436859,115.637199 260.612762,113.698875 263.798157,111.776314 
	C266.597015,110.087036 267.185333,107.893959 265.221466,105.217842 
	C263.102264,102.330078 260.902954,99.501122 257.602936,97.063942 
	C257.602936,99.560051 257.710449,102.062141 257.571960,104.550545 
	C257.440094,106.920067 257.051483,109.275314 255.971832,111.557869 
	C255.077026,105.109764 254.864624,98.452034 252.977463,92.308777 
	C252.131348,89.554451 247.931244,87.830444 244.261124,84.827087 
	C244.780273,90.670921 245.236984,95.311562 245.587570,99.960190 
	C245.775208,102.448135 245.692581,104.956696 245.886444,107.443901 
	C246.234482,111.909431 244.501419,114.967583 240.016785,115.925423 
	C235.456467,116.899406 232.187057,115.291588 230.807434,110.576363 
	C230.677063,110.130814 230.306732,109.755478 229.269379,108.121155 
	C227.258087,110.934639 225.112091,113.086853 223.984238,115.681618 
	C221.170212,122.155594 219.130905,122.695496 214.348999,117.270767 
	C215.077194,116.897141 215.540161,116.918930 216.003113,116.940727 
	C219.158295,119.382729 220.503128,117.487335 221.945557,114.762405 
	C223.532013,111.765427 225.588516,109.017281 228.042938,105.884537 
	C232.178879,104.216179 232.328613,107.292145 233.237778,109.186768 
	C234.909073,112.669586 237.872253,112.674683 240.818314,111.803711 
	C242.027603,111.446220 243.807388,109.749252 243.725098,108.800606 
	C242.948242,99.845535 241.825180,90.920486 240.764725,81.661949 
	C239.532898,82.312119 238.834763,82.680603 237.914261,82.898003 
	C237.454269,82.480247 237.216660,82.213585 236.979034,81.946915 
	C239.078629,80.307777 238.426285,78.955894 236.888641,77.180672 
	C234.445999,74.360611 232.363602,71.228531 230.128815,68.228432 
	C230.577026,67.843910 231.025238,67.459396 231.473450,67.074883 
	C233.612823,68.510086 235.752182,69.945290 238.426666,71.614853 
	C239.146866,71.406494 239.331955,70.963760 239.517059,70.521027 
M246.690384,82.702232 
	C248.878418,84.533737 251.066452,86.365234 253.966232,88.792511 
	C253.425598,82.448647 252.986176,77.292534 252.480515,71.359100 
	C249.005005,74.254784 246.260635,76.541306 243.235046,79.062126 
	C244.418930,80.340576 245.282227,81.272820 246.690384,82.702232 
z"/>
<path fill="#D4E6DD" opacity="1.000000" stroke="none" 
	d="
M233.738663,179.590485 
	C232.249863,179.610367 230.501694,179.126877 229.317154,179.737259 
	C224.168762,182.390076 224.742599,179.418747 225.582458,175.720276 
	C223.690201,175.720276 221.900864,175.722046 220.111511,175.720001 
	C189.807190,175.685501 159.502457,175.719177 129.198914,175.547134 
	C124.226013,175.518921 118.919548,175.936035 113.871109,171.573608 
	C151.626511,171.573608 188.453110,171.573608 224.973206,171.573608 
	C225.324203,169.555695 225.545975,168.006699 225.934052,166.500534 
	C225.970291,166.359879 227.531845,166.347244 227.583160,166.517273 
	C228.003311,167.909164 228.233002,169.358566 228.627930,171.325256 
	C233.404083,171.325256 238.524399,171.324615 243.644714,171.325455 
	C247.507797,171.326096 248.963959,173.209427 248.470917,177.039139 
	C247.973679,180.901352 245.735321,180.367844 243.045197,179.724503 
	C241.463882,179.346344 239.743866,179.548233 237.782440,179.482635 
	C237.478638,179.476074 237.430313,179.226120 237.854462,179.345322 
	C239.738007,178.829666 241.197388,178.194809 242.656769,177.559952 
	C242.461548,177.056885 242.266327,176.553833 242.071106,176.050766 
	C237.444672,176.050766 232.818253,176.050766 228.072632,176.050766 
	C228.561752,179.930283 230.936920,179.727570 233.490158,179.342010 
	C233.499542,179.474548 233.738663,179.590469 233.738663,179.590485 
z"/>
<path fill="#EDF5F1" opacity="1.000000" stroke="none" 
	d="
M116.042473,94.123917 
	C117.470413,92.333412 118.763580,89.227768 120.358253,89.064346 
	C122.680473,88.826378 125.219749,90.706573 128.662445,92.081390 
	C129.390305,91.618843 131.288666,90.412460 133.170288,89.216721 
	C134.266815,90.535233 135.332031,91.816101 137.299820,94.182266 
	C137.435974,82.746925 134.119156,73.056473 134.929886,63.221390 
	C135.727097,63.153984 136.524292,63.086578 137.321487,63.019173 
	C137.836609,67.611519 138.386963,72.200272 138.857010,76.797226 
	C139.335129,81.473145 139.734192,86.157150 140.278732,92.034264 
	C142.118988,89.937660 143.026993,88.903175 143.610641,88.238220 
	C145.392517,89.402885 146.928741,90.406998 149.021805,91.775063 
	C149.648407,89.297569 150.009369,87.870422 150.370316,86.443275 
	C150.937134,86.572060 151.503967,86.700851 152.070786,86.829636 
	C151.416733,89.054153 151.409821,92.059273 149.929184,93.286720 
	C148.405746,94.549660 145.444946,94.078804 141.847321,94.522842 
	C142.357666,104.531853 135.462128,110.895630 126.144508,115.548149 
	C116.746269,120.240929 107.448418,120.212929 99.020416,115.308678 
	C100.081276,111.683586 101.253555,107.677773 102.579903,103.145508 
	C103.044235,106.345467 103.443024,109.093750 103.919479,112.377228 
	C112.437340,108.682541 120.711586,106.009926 126.938072,98.885246 
	C123.150253,96.456299 118.114876,100.903938 116.009918,95.095062 
	C116.073181,94.527351 116.042473,94.123917 116.042473,94.123917 
M116.091286,114.872452 
	C123.409286,113.493904 129.798386,110.261200 135.565323,105.556335 
	C138.342026,103.291016 139.804855,100.965279 138.322128,98.004517 
	C135.924149,96.604530 133.919769,95.434334 131.355850,93.937469 
	C130.551987,94.973618 128.737686,96.246300 128.602890,97.677177 
	C128.114746,102.859444 124.636604,105.544708 120.805771,107.912224 
	C116.955185,110.291939 112.884323,112.315231 108.044189,114.969505 
	C111.095100,114.969505 113.175705,114.969505 116.091286,114.872452 
z"/>
<path fill="#E6F1EB" opacity="1.000000" stroke="none" 
	d="
M236.659302,82.064240 
	C237.216660,82.213585 237.454269,82.480247 237.751282,83.199188 
	C237.074280,84.297020 236.379547,84.999016 235.594315,85.578354 
	C232.207794,88.076889 229.554245,90.579414 230.686783,95.651077 
	C231.138489,97.673820 229.075500,100.258102 228.157257,102.586754 
	C228.157242,99.512718 228.157242,96.438683 228.157242,92.272598 
	C225.422226,94.570084 223.588425,96.110527 222.883545,96.702644 
	C222.883545,101.013390 224.105789,105.153954 222.585052,106.885437 
	C220.520920,109.235657 216.357346,109.742012 213.094254,111.039215 
	C212.531403,110.409027 211.968567,109.778839 211.405716,109.148651 
	C213.001801,105.578278 214.597900,102.007904 216.395157,97.987534 
	C214.370667,96.288162 211.792450,94.123985 208.220474,91.125633 
	C208.220474,98.896202 208.220474,105.485680 208.220474,112.075157 
	C207.909195,112.077545 207.597931,112.079933 207.286652,112.082321 
	C206.829773,109.006401 206.372910,105.930489 205.502350,102.802963 
	C205.088684,102.751343 205.091705,102.853333 205.091705,102.853333 
	C206.317902,96.363014 207.128693,90.045311 201.653763,84.715034 
	C198.688965,81.828560 196.178589,78.475327 193.162140,74.667557 
	C192.749313,73.758469 192.637573,73.514481 192.525848,73.270485 
	C192.587296,72.624359 192.648727,71.978233 193.111511,71.225784 
	C193.512848,71.119461 193.715759,71.082191 193.715759,71.082191 
	C196.776657,72.835960 200.491943,73.817993 200.549149,78.569160 
	C200.564072,79.808304 202.352600,81.026108 204.054657,83.171509 
	C204.054657,75.754425 204.023346,70.070091 204.110687,64.387581 
	C204.118134,63.902843 204.915817,63.430252 206.685806,63.023853 
	C206.792908,66.227356 207.172989,69.449379 206.957108,72.630959 
	C206.242737,83.159386 209.669403,91.345490 219.742249,95.872849 
	C226.497345,92.920815 228.363754,87.577820 226.693909,80.337875 
	C225.766174,76.315620 225.488907,72.124252 225.172928,67.989655 
	C225.051590,66.402016 225.637589,64.760323 225.901276,63.143265 
	C226.587326,63.136913 227.273376,63.130566 227.959427,63.124218 
	C228.607635,70.863968 229.255859,78.603714 229.998093,87.466133 
	C232.485336,85.393410 234.412445,83.787483 236.659302,82.064240 
M217.924500,101.054123 
	C216.539368,102.740120 215.154251,104.426125 213.769135,106.112129 
	C214.023376,106.504707 214.277618,106.897293 214.531876,107.289871 
	C217.056488,106.448883 219.581116,105.607887 223.197281,104.403297 
	C220.941879,102.572655 219.753494,101.608086 217.924500,101.054123 
z"/>
<path fill="#EEF5F1" opacity="1.000000" stroke="none" 
	d="
M204.740234,102.485023 
	C205.091705,102.853333 205.088684,102.751343 205.073120,102.706284 
	C203.394302,103.775429 201.874084,105.403358 200.042572,105.913383 
	C192.781204,107.935478 185.422470,109.607956 178.094620,111.411301 
	C179.306671,115.841774 186.586395,112.362747 185.413910,118.472038 
	C176.498581,119.630684 171.719498,116.100029 169.014740,105.899551 
	C168.599426,104.815231 168.257675,104.390732 167.915924,103.966232 
	C166.407440,99.681686 164.836151,95.417702 163.423065,91.101913 
	C162.897766,89.497520 162.742966,87.771805 162.419220,86.101418 
	C163.188568,85.874023 163.957932,85.646629 164.727280,85.419243 
	C166.788666,91.015366 168.850037,96.611488 170.964020,102.991714 
	C171.094849,107.581360 172.149872,110.817833 174.711655,112.053284 
	C179.172394,109.493393 182.753021,107.438560 186.550400,105.259346 
	C182.552322,105.259346 178.881851,105.441383 175.248413,105.154434 
	C174.076019,105.061836 173.001007,103.736061 171.881454,102.974419 
	C176.317612,99.975288 180.753769,96.976166 183.854935,94.879585 
	C185.718582,91.980316 187.334747,88.358917 188.062576,88.529434 
	C190.898788,89.193886 193.453445,91.060242 196.112823,92.479568 
	C195.167953,93.612335 194.440384,95.328148 193.240067,95.775505 
	C188.410660,97.575401 183.435104,98.983101 178.513550,100.535713 
	C178.570526,101.062714 178.627502,101.589714 178.684494,102.116714 
	C187.252579,102.116714 195.820679,102.116714 204.740234,102.485023 
z"/>
<path fill="#0A723D" opacity="1.000000" stroke="none" 
	d="
M228.120361,102.978416 
	C229.075500,100.258102 231.138489,97.673820 230.686783,95.651077 
	C229.554245,90.579414 232.207794,88.076889 235.594315,85.578354 
	C236.379547,84.999016 237.074280,84.297020 237.973633,83.350273 
	C238.834763,82.680603 239.532898,82.312119 240.764725,81.661949 
	C241.825180,90.920486 242.948242,99.845535 243.725098,108.800606 
	C243.807388,109.749252 242.027603,111.446220 240.818314,111.803711 
	C237.872253,112.674683 234.909073,112.669586 233.237778,109.186768 
	C232.328613,107.292145 232.178879,104.216179 228.315155,105.668137 
	C228.017593,104.941971 228.050537,104.156029 228.120361,102.978416 
z"/>
<path fill="#E8F2ED" opacity="1.000000" stroke="none" 
	d="
M167.588440,104.052849 
	C168.257675,104.390732 168.599426,104.815231 169.002197,105.511703 
	C164.258179,109.353851 159.648529,113.240364 154.574219,116.374557 
	C151.569931,118.230186 147.848572,118.793831 145.710144,115.379005 
	C139.875687,116.992462 134.344467,118.522072 128.813232,120.051674 
	C128.744080,119.722466 128.674927,119.393257 128.605774,119.064049 
	C138.498932,113.443359 148.392105,107.822662 157.651047,102.562294 
	C157.419525,96.606293 151.533600,93.348328 154.797531,87.565910 
	C159.354340,91.781975 160.978928,97.409370 159.153687,102.028046 
	C157.446152,106.348915 152.595230,109.427574 148.589828,113.615311 
	C156.854309,113.718742 161.757629,108.303185 167.588440,104.052849 
z"/>
<path fill="#E3EFE9" opacity="1.000000" stroke="none" 
	d="
M115.659737,94.478104 
	C116.042473,94.123917 116.073181,94.527351 116.049438,94.728256 
	C115.509804,95.563805 114.619522,96.156631 114.543152,96.840370 
	C114.220436,99.729645 114.140045,102.645988 113.971046,105.552429 
	C113.503265,105.561409 113.035477,105.570396 112.567696,105.579376 
	C111.989372,99.040825 111.411041,92.502281 110.889305,86.603531 
	C108.197685,84.290092 105.826721,82.252258 103.455757,80.214432 
	C103.786415,79.775940 104.117073,79.337448 104.447731,78.898956 
	C106.097931,79.654945 107.748131,80.410934 109.829079,81.364265 
	C109.829079,74.911781 109.829079,68.914337 109.829079,62.916897 
	C115.472824,68.146156 111.123512,74.765518 113.782021,80.728127 
	C114.686546,80.673866 116.013985,80.594238 118.356812,80.453697 
	C113.149254,84.822517 112.666016,89.603523 115.659737,94.478104 
z"/>
<path fill="#137744" opacity="1.000000" stroke="none" 
	d="
M121.226845,68.980125 
	C122.924248,67.994766 124.621658,67.009407 126.944534,66.233788 
	C129.073715,70.637848 130.577408,74.832176 131.712891,79.132568 
	C127.471298,80.998405 124.393044,79.769478 122.680580,76.174194 
	C121.659988,74.031479 121.676544,71.394760 121.226845,68.980125 
z"/>
<path fill="#DFEDE6" opacity="1.000000" stroke="none" 
	d="
M121.129669,68.626503 
	C121.676544,71.394760 121.659988,74.031479 122.680580,76.174194 
	C124.393044,79.769478 127.471298,80.998405 131.899384,79.122421 
	C132.454086,79.006210 132.825195,78.963921 132.825195,78.963921 
	C131.111954,83.325058 127.605385,84.805794 124.194145,82.028732 
	C121.596863,79.914314 118.599930,77.808754 119.092819,73.353310 
	C119.429100,70.313438 118.483711,67.131790 118.111382,64.013527 
	C118.600456,63.888435 119.089531,63.763344 119.578606,63.638252 
	C120.063240,65.183128 120.547867,66.728004 121.129669,68.626503 
z"/>
<path fill="#DFEDE6" opacity="1.000000" stroke="none" 
	d="
M190.099777,81.210243 
	C187.202515,84.788651 183.843430,84.033897 181.125702,81.439812 
	C178.916031,79.330666 176.451752,77.126518 177.039993,73.106354 
	C177.453445,70.280792 176.430710,67.245071 176.049286,64.303200 
	C176.630554,64.195679 177.211838,64.088165 177.793106,63.980648 
	C178.438126,67.011589 179.225662,70.020630 179.695541,73.078484 
	C180.444824,77.954697 182.850037,80.606010 188.698090,80.125366 
	C189.592224,80.594788 189.846008,80.902512 190.099777,81.210243 
z"/>
<path fill="#278354" opacity="1.000000" stroke="none" 
	d="
M171.683502,102.984863 
	C173.001007,103.736061 174.076019,105.061836 175.248413,105.154434 
	C178.881851,105.441383 182.552322,105.259346 186.550400,105.259346 
	C182.753021,107.438560 179.172394,109.493393 174.711655,112.053284 
	C172.149872,110.817833 171.094849,107.581360 171.052994,103.377930 
	C171.089355,102.980057 171.485535,102.995316 171.683502,102.984863 
z"/>
<path fill="#D4E6DD" opacity="1.000000" stroke="none" 
	d="
M190.384506,80.971130 
	C189.846008,80.902512 189.592224,80.594788 189.098358,80.106926 
	C188.752838,78.019760 188.880356,76.063927 188.493195,74.215919 
	C187.701691,70.437920 183.918793,67.262199 186.660675,61.383766 
	C188.751312,66.198959 190.375153,69.939018 192.262421,73.474785 
	C192.637573,73.514481 192.749313,73.758469 192.961884,74.392174 
	C192.264893,76.765266 191.467072,78.748650 190.384506,80.971130 
z"/>
<path fill="#E7F1EC" opacity="1.000000" stroke="none" 
	d="
M164.264145,83.687851 
	C163.259277,82.208054 162.521423,80.984581 161.783585,79.761116 
	C166.435379,82.119591 170.881165,83.136284 175.973785,79.598289 
	C173.288620,85.351570 170.244354,86.309227 164.264145,83.687851 
z"/>
<path fill="#DAE9E1" opacity="1.000000" stroke="none" 
	d="
M133.061203,78.671555 
	C132.825195,78.963921 132.454086,79.006210 132.267593,79.016357 
	C130.577408,74.832176 129.073715,70.637848 127.292435,66.220375 
	C127.372467,64.780556 127.730064,63.563877 128.087677,62.347202 
	C128.536072,62.271763 128.984467,62.196323 129.432846,62.120884 
	C130.683502,67.551826 134.319794,72.249794 133.061203,78.671555 
z"/>
<path fill="#0A723D" opacity="1.000000" stroke="none" 
	d="
M215.954254,116.647415 
	C215.540161,116.918930 215.077194,116.897141 214.269989,116.925407 
	C213.815842,116.055084 213.705933,115.134705 213.596024,114.214325 
	C213.912720,114.111443 214.229416,114.008553 214.546112,113.905670 
	C214.999207,114.721817 215.452301,115.537964 215.954254,116.647415 
z"/>
<path fill="#0A723D" opacity="1.000000" stroke="none" 
	d="
M233.979202,179.854553 
	C233.738663,179.590469 233.499542,179.474548 233.983459,179.298248 
	C235.455017,179.156677 236.442657,179.191391 237.430313,179.226120 
	C237.430313,179.226120 237.478638,179.476074 237.368195,179.539337 
	C236.245071,179.774628 235.232407,179.946640 233.979202,179.854553 
z"/>
<path fill="#D4E6DD" opacity="1.000000" stroke="none" 
	d="
M193.485489,70.924622 
	C193.715759,71.082191 193.512848,71.119461 193.415009,71.086830 
	C193.627899,70.504013 193.938644,69.953835 194.249390,69.403641 
	C193.991623,69.354912 193.733871,69.306190 193.476120,69.257462 
	C193.402481,69.760658 193.328842,70.263863 193.485489,70.924622 
z"/>
<path fill="#0F7541" opacity="1.000000" stroke="none" 
	d="
M246.417938,82.453644 
	C245.282227,81.272820 244.418930,80.340576 243.235046,79.062126 
	C246.260635,76.541306 249.005005,74.254784 252.480515,71.359100 
	C252.986176,77.292534 253.425598,82.448647 253.966232,88.792511 
	C251.066452,86.365234 248.878418,84.533737 246.417938,82.453644 
z"/>
<path fill="#016D36" opacity="1.000000" stroke="none" 
	d="
M239.250748,70.809067 
	C239.331955,70.963760 239.146866,71.406494 238.729614,71.780746 
	C238.659790,71.507210 238.822113,71.302162 239.250748,70.809067 
z"/>
<path fill="#016D36" opacity="1.000000" stroke="none" 
	d="
M237.854462,179.345322 
	C236.442657,179.191391 235.455017,179.156677 233.974060,179.165710 
	C230.936920,179.727570 228.561752,179.930283 228.072632,176.050766 
	C232.818253,176.050766 237.444672,176.050766 242.071106,176.050766 
	C242.266327,176.553833 242.461548,177.056885 242.656769,177.559952 
	C241.197388,178.194809 239.738007,178.829666 237.854462,179.345322 
z"/>
<path fill="#0D733F" opacity="1.000000" stroke="none" 
	d="
M115.673798,114.920975 
	C113.175705,114.969505 111.095100,114.969505 108.044189,114.969505 
	C112.884323,112.315231 116.955185,110.291939 120.805771,107.912224 
	C124.636604,105.544708 128.114746,102.859444 128.602890,97.677177 
	C128.737686,96.246300 130.551987,94.973618 131.355850,93.937469 
	C133.919769,95.434334 135.924149,96.604530 138.322128,98.004517 
	C139.804855,100.965279 138.342026,103.291016 135.565323,105.556335 
	C129.798386,110.261200 123.409286,113.493904 115.673798,114.920975 
z"/>
<path fill="#1A7B49" opacity="1.000000" stroke="none" 
	d="
M218.244812,100.848816 
	C219.753494,101.608086 220.941879,102.572655 223.197281,104.403297 
	C219.581116,105.607887 217.056488,106.448883 214.531876,107.289871 
	C214.277618,106.897293 214.023376,106.504707 213.769135,106.112129 
	C215.154251,104.426125 216.539368,102.740120 218.244812,100.848816 
z"/>
</svg>